<?xml version="1.0" encoding="UTF-8"?>
<svg id="Layer_1" xmlns="http://www.w3.org/2000/svg" version="1.1" viewBox="0 0 143.09 37.95">
  <!-- Generator: Adobe Illustrator 29.5.1, SVG Export Plug-In . SVG Version: 2.1.0 Build 141)  -->
  <defs>
    <style>
      .st0 {
        fill: #420068;
      }

      .st1 {
        fill: #fff;
      }

      .st2 {
        fill: #ffbc00;
      }
    </style>
  </defs>
  <g>
    <path class="st2" d="M11.02,20.62c0,1.38-.68,2.07-2.04,2.07H2.02c-1.34,0-2.02-.69-2.02-2.07v-5.23h3.34v4.39h4.37v-5.7l-4.16-2.86v-.71l4.16-2.81V2.92H3.34v4.13H0V2.09C0,.7.69,0,2.06,0h6.92c1.36,0,2.04.7,2.04,2.09v5.34c0,.9-.38,1.6-1.13,2.09l-2.1,1.36,2.13,1.33c.73.45,1.1,1.14,1.1,2.04v6.37Z"/>
    <path class="st2" d="M24.97,18.42c0,1.33-.4,2.38-1.19,3.14s-1.86,1.14-3.2,1.14h-6.92V0h6.92c1.34,0,2.41.38,3.2,1.15s1.19,1.82,1.19,3.15v14.11ZM21.56,17.85V4.81c0-1.27-.66-1.9-1.99-1.9h-2.52v16.87h2.44c1.38,0,2.07-.64,2.07-1.93Z"/>
    <path class="st1" d="M40.93,12.36c0,1.41-.69,2.12-2.07,2.12h-5.5v8.22h-3.39V0h8.89c1.38,0,2.07.7,2.07,2.09v10.27ZM37.51,11.56V2.92h-4.15v8.64h4.15Z"/>
    <path class="st1" d="M53,14.17h-3.29v-3.35l-2.63.06v11.82h-3.32v-14.65h3.32v.54c.69-.13,1.37-.25,2.04-.38.82-.14,1.51-.22,2.06-.22,1.21,0,1.81.59,1.81,1.78v4.39Z"/>
    <path class="st1" d="M58.84,5.95h-3.32v-3.42h3.32v3.42ZM58.81,22.69h-3.26v-14.65h3.26v14.65Z"/>
    <path class="st1" d="M71.65,22.69h-3.34v-11.88l-3.12.06v11.82h-3.32v-14.65h3.32v.54c.77-.13,1.54-.25,2.31-.36.95-.15,1.73-.23,2.33-.23,1.21,0,1.81.59,1.81,1.78v12.92Z"/>
    <path class="st1" d="M80.94,22.69h-3.68c-1.23,0-1.84-.6-1.84-1.81v-10.01h-1.57v-2.83h1.57v-3.97h3.31v3.97h2.13v2.83h-2.13v8.99h2.22v2.83Z"/>
    <path class="st1" d="M97.4,20.62c0,1.38-.69,2.07-2.06,2.07h-6.83c-1.36,0-2.04-.69-2.04-2.07v-5.41h3.39v4.63h4.15v-4.45l-6.8-6.44c-.49-.47-.74-1.08-.74-1.81V2.09c0-1.39.68-2.09,2.04-2.09h6.83c1.37,0,2.06.69,2.06,2.06v5.08h-3.39V2.86h-4.15v4.1l6.8,6.41c.49.46.74,1.08.74,1.84v5.41Z"/>
    <path class="st1" d="M106.84,22.69h-3.68c-1.23,0-1.84-.6-1.84-1.81v-10.01h-1.57v-2.83h1.57v-3.97h3.31v3.97h2.13v2.83h-2.13v8.99h2.22v2.83Z"/>
    <path class="st1" d="M118.93,20.88c0,1.21-.61,1.81-1.84,1.81h-5.95c-1.25,0-1.87-.6-1.87-1.81v-11.02c0-1.21.62-1.81,1.87-1.81h5.95c1.23,0,1.84.6,1.84,1.81v11.02ZM115.68,19.94v-9.12h-3.15v9.12h3.15Z"/>
    <path class="st1" d="M131.16,14.17h-3.29v-3.35l-2.63.06v11.82h-3.32v-14.65h3.32v.54c.69-.13,1.37-.25,2.04-.38.82-.14,1.51-.22,2.06-.22,1.21,0,1.81.59,1.81,1.78v4.39Z"/>
    <path class="st1" d="M143.09,20.88c0,1.21-.62,1.81-1.87,1.81h-5.73c-1.25,0-1.87-.6-1.87-1.81v-11.02c0-1.21.62-1.81,1.87-1.81h5.73c1.25,0,1.87.6,1.87,1.81v5.38l-.91.91h-5.38v4.1h3.12v-2.44h3.18v3.06ZM139.91,13.99v-3.51h-3.12v3.51h3.12Z"/>
  </g>
  <g>
    <path class="st1" d="M4.91,33.32c0,.63-.31.95-.93.95H1.52v3.68H0v-10.17h3.98c.62,0,.93.31.93.94v4.6ZM3.38,32.96v-3.87h-1.86v3.87h1.86Z"/>
    <path class="st1" d="M8.07,37.95h-1.52v-10.17h1.52v10.17Z"/>
    <path class="st1" d="M14.85,37.02c0,.62-.31.93-.93.93h-3.17c-.6,0-.9-.31-.9-.93v-8.3c0-.62.3-.94.9-.94h3.17c.62,0,.93.31.93.94v2.38h-1.51v-2.01h-1.97v7.56h1.97v-2.14h1.51v2.51Z"/>
    <path class="st1" d="M21.71,37.95h-1.68l-1.93-4.54v4.54h-1.52v-10.17h1.52v4.3l1.69-4.3h1.66v.07l-2.07,4.83,2.32,5.27Z"/>
    <path class="st1" d="M37.59,33.32c0,.63-.31.95-.93.95h-2.46v3.68h-1.52v-10.17h3.98c.62,0,.93.31.93.94v4.6ZM36.05,32.96v-3.87h-1.86v3.87h1.86Z"/>
    <path class="st1" d="M44.4,37.95h-1.59l-1.68-4.72v-.92h1.49v-3.22h-1.92v8.86h-1.52v-10.17h4.04c.61,0,.92.31.92.94v3.7c0,.43-.15.71-.44.83-.16.07-.48.1-.99.1l1.68,4.61Z"/>
    <path class="st1" d="M47.41,37.95h-1.52v-10.17h1.52v10.17Z"/>
    <path class="st1" d="M54.34,37.95h-1.33l-2.44-6.4c.06.31.1.56.1.73v5.67h-1.48v-10.17h1.33l2.44,6.27c-.06-.31-.1-.56-.1-.73v-5.54h1.48v10.17Z"/>
    <path class="st1" d="M60.51,29.13h-1.68v8.82h-1.51v-8.82h-1.68v-1.35h4.87v1.35Z"/>
    <path class="st1" d="M76.55,33.32c0,.63-.31.95-.93.95h-2.46v3.68h-1.52v-10.17h3.98c.62,0,.93.31.93.94v4.6ZM75.02,32.96v-3.87h-1.86v3.87h1.86Z"/>
    <path class="st1" d="M83.29,37.02c0,.62-.31.93-.92.93h-3.3c-.6,0-.9-.31-.9-.93v-8.3c0-.62.3-.94.9-.94h3.3c.61,0,.92.31.92.94v8.3ZM81.77,36.64v-7.56h-2.09v7.56h2.09Z"/>
    <path class="st1" d="M89.92,37.02c0,.62-.31.93-.92.93h-3.06c-.61,0-.92-.31-.92-.93v-2.42h1.52v2.07h1.86v-1.99l-3.05-2.88c-.22-.21-.33-.48-.33-.81v-2.26c0-.62.31-.94.92-.94h3.06c.61,0,.92.31.92.92v2.27h-1.52v-1.92h-1.86v1.84l3.05,2.87c.22.21.33.48.33.83v2.42Z"/>
    <path class="st1" d="M96.08,29.13h-1.68v8.82h-1.51v-8.82h-1.68v-1.35h4.87v1.35Z"/>
    <path class="st2" d="M112.41,37.95h-1.59l-1.68-4.72v-.92h1.49v-3.22h-1.92v8.86h-1.52v-10.17h4.04c.61,0,.92.31.92.94v3.7c0,.43-.15.71-.44.83-.16.07-.48.1-.99.1l1.68,4.61Z"/>
    <path class="st2" d="M118.09,37.95h-4.22v-10.17h4.18v1.35h-2.66v2.97h2.29v1.32h-2.29v3.19h2.7v1.35Z"/>
    <path class="st2" d="M124.57,33.32c0,.63-.31.95-.93.95h-2.46v3.68h-1.52v-10.17h3.98c.62,0,.93.31.93.94v4.6ZM123.04,32.96v-3.87h-1.86v3.87h1.86Z"/>
    <path class="st2" d="M130.4,37.95h-4.22v-10.17h4.18v1.35h-2.66v2.97h2.29v1.32h-2.29v3.19h2.7v1.35Z"/>
    <path class="st2" d="M137.13,37.95h-1.51l-.31-1.93h-1.9l-.31,1.93h-1.5v-.03l1.97-10.16h1.6l1.96,10.18ZM135.1,34.71l-.74-4.59-.75,4.59h1.49Z"/>
    <path class="st2" d="M142.93,29.13h-1.68v8.82h-1.51v-8.82h-1.68v-1.35h4.87v1.35Z"/>
  </g>
  <circle class="st0" cx="26.8" cy="32.57" r="2.22"/>
  <circle class="st0" cx="65.93" cy="32.57" r="2.22"/>
  <circle class="st0" cx="101.53" cy="32.57" r="2.22"/>
</svg>